<svg class="icon" xmlns="http://www.w3.org/2000/svg">
    <g id="icon-home" stroke="none" stroke-width="1" fill="none" fill-rule="evenodd">
        <path d="M12.6708 3.21744C12.2485 3.0063 11.7515 3.0063 11.3292 3.21744L5.82918 5.96744C5.321 6.22153 5 6.74092 5 7.30908V18.0001C5 19.6569 6.34315 21.0001 8 21.0001H16C17.6569 21.0001 19 19.6569 19 18.0001V7.30908C19 6.74092 18.679 6.22153 18.1708 5.96744L12.6708 3.21744Z" fill="currentColor" fill-opacity="0.25"/>
        <path fill-rule="evenodd" clip-rule="evenodd" d="M14 21H10V17C10 15.8954 10.8954 15 12 15C13.1046 15 14 15.8954 14 17V21Z" fill="currentColor"/>
        <path fill-rule="evenodd" clip-rule="evenodd" d="M3.10558 8.44699C3.35257 8.94097 3.95324 9.1412 4.44722 8.89421L12 5.11781L19.5528 8.89421C20.0468 9.1412 20.6474 8.94097 20.8944 8.44699C21.1414 7.95302 20.9412 7.35234 20.4472 7.10535L12.4472 3.10535C12.1657 2.96459 11.8343 2.96459 11.5528 3.10535L3.55279 7.10535C3.05881 7.35234 2.85859 7.95302 3.10558 8.44699Z" fill="currentColor"/>
    </g>

    <g id="icon-home-2" fill="none" xmlns="http://www.w3.org/2000/svg">
        <path d="M8 17H16M11.0177 2.764L4.23539 8.03912C3.78202 8.39175 3.55534 8.56806 3.39203 8.78886C3.24737 8.98444 3.1396 9.20478 3.07403 9.43905C3 9.70352 3 9.9907 3 10.5651V17.8C3 18.9201 3 19.4801 3.21799 19.908C3.40973 20.2843 3.71569 20.5903 4.09202 20.782C4.51984 21 5.07989 21 6.2 21H17.8C18.9201 21 19.4802 21 19.908 20.782C20.2843 20.5903 20.5903 20.2843 20.782 19.908C21 19.4801 21 18.9201 21 17.8V10.5651C21 9.9907 21 9.70352 20.926 9.43905C20.8604 9.20478 20.7526 8.98444 20.608 8.78886C20.4447 8.56806 20.218 8.39175 19.7646 8.03913L12.9823 2.764C12.631 2.49075 12.4553 2.35412 12.2613 2.3016C12.0902 2.25526 11.9098 2.25526 11.7387 2.3016C11.5447 2.35412 11.369 2.49075 11.0177 2.764Z" stroke="currentColor" stroke-width="2" stroke-linecap="round" stroke-linejoin="round"/>
    </g>

    <g id="icon-home-3" fill="none" xmlns="http://www.w3.org/2000/svg">
        <path d="M11 3H7.8C6.11984 3 5.27976 3 4.63803 3.32698C4.07354 3.6146 3.6146 4.07354 3.32698 4.63803C3 5.27976 3 6.11984 3 7.8V16.2C3 17.8802 3 18.7202 3.32698 19.362C3.6146 19.9265 4.07354 20.3854 4.63803 20.673C5.27976 21 6.11984 21 7.8 21H16.2C17.8802 21 18.7202 21 19.362 20.673C19.9265 20.3854 20.3854 19.9265 20.673 19.362C21 18.7202 21 17.8802 21 16.2V13M12 8H16V12M15.5 3.5V2M19.4393 4.56066L20.5 3.5M20.5103 8.5H22.0103M3 13.3471C3.65194 13.4478 4.31987 13.5 5 13.5C9.38636 13.5 13.2653 11.3276 15.6197 8" stroke="currentColor" stroke-width="2" stroke-linecap="round" stroke-linejoin="round"/>
    </g>

    <g id="icon-dropdown" stroke="none" stroke-width="1" fill="none" fill-rule="evenodd">
        <polygon points="0 0 24 0 24 24 0 24"/>
        <path d="M6.70710678,15.7071068 C6.31658249,16.0976311 5.68341751,16.0976311 5.29289322,15.7071068 C4.90236893,15.3165825 4.90236893,14.6834175 5.29289322,14.2928932 L11.2928932,8.29289322 C11.6714722,7.91431428 12.2810586,7.90106866 12.6757246,8.26284586 L18.6757246,13.7628459 C19.0828436,14.1360383 19.1103465,14.7686056 18.7371541,15.1757246 C18.3639617,15.5828436 17.7313944,15.6103465 17.3242754,15.2371541 L12.0300757,10.3841378 L6.70710678,15.7071068 Z" fill="currentColor" fill-rule="nonzero" transform="translate(12.000003, 11.999999) rotate(-180.000000) translate(-12.000003, -11.999999) "/>
    </g>

    <g id="icon-download" fill="none" xmlns="http://www.w3.org/2000/svg">
        <path d="M8 17L12 21M12 21L16 17M12 21V12M20 16.7428C21.2215 15.734 22 14.2079 22 12.5C22 9.46243 19.5376 7 16.5 7C16.2815 7 16.0771 6.886 15.9661 6.69774C14.6621 4.48484 12.2544 3 9.5 3C5.35786 3 2 6.35786 2 10.5C2 12.5661 2.83545 14.4371 4.18695 15.7935" stroke="currentColor" stroke-width="2" stroke-linecap="round" stroke-linejoin="round"/>
    </g>

    <g id="icon-close" stroke="none" stroke-width="1" fill="none" fill-rule="evenodd">
        <g transform="translate(12.000000, 12.000000) rotate(-45.000000) translate(-12.000000, -12.000000) translate(4.000000, 4.000000)" fill="currentColor">
            <rect x="0" y="7" width="16" height="2" rx="1"/>
            <rect transform="translate(8.000000, 8.000000) rotate(-270.000000) translate(-8.000000, -8.000000) " x="0" y="7" width="16" height="2" rx="1"/>
        </g>
    </g>

    <g id="icon-user-edit" fill="none" xmlns="http://www.w3.org/2000/svg">
        <path d="M9 15.5H7.5C6.10444 15.5 5.40665 15.5 4.83886 15.6722C3.56045 16.06 2.56004 17.0605 2.17224 18.3389C2 18.9067 2 19.6044 2 21M14.5 7.5C14.5 9.98528 12.4853 12 10 12C7.51472 12 5.5 9.98528 5.5 7.5C5.5 5.01472 7.51472 3 10 3C12.4853 3 14.5 5.01472 14.5 7.5ZM11 21L14.1014 20.1139C14.2499 20.0715 14.3241 20.0502 14.3934 20.0184C14.4549 19.9902 14.5134 19.9558 14.5679 19.9158C14.6293 19.8707 14.6839 19.8161 14.7932 19.7068L21.25 13.25C21.9404 12.5597 21.9404 11.4403 21.25 10.75C20.5597 10.0596 19.4404 10.0596 18.75 10.75L12.2932 17.2068C12.1839 17.3161 12.1293 17.3707 12.0842 17.4321C12.0442 17.4866 12.0098 17.5451 11.9816 17.6066C11.9497 17.6759 11.9285 17.7501 11.8861 17.8987L11 21Z" stroke="currentColor" stroke-width="2" stroke-linecap="round" stroke-linejoin="round"/>
    </g>

    <g id="icon-angle-down" fill="none" xmlns="http://www.w3.org/2000/svg">
        <path d="M6 9L12 15L18 9" stroke="currentColor" stroke-width="2" stroke-linecap="round" stroke-linejoin="round"/>
    </g>

    <g id="icon-logout" fill="none" xmlns="http://www.w3.org/2000/svg">
        <path d="M16 16.9999L21 11.9999M21 11.9999L16 6.99994M21 11.9999H9M12 16.9999C12 17.2955 12 17.4433 11.989 17.5713C11.8748 18.9019 10.8949 19.9968 9.58503 20.2572C9.45903 20.2823 9.31202 20.2986 9.01835 20.3312L7.99694 20.4447C6.46248 20.6152 5.69521 20.7005 5.08566 20.5054C4.27293 20.2453 3.60942 19.6515 3.26118 18.8724C3 18.2881 3 17.5162 3 15.9722V8.02764C3 6.4837 3 5.71174 3.26118 5.12746C3.60942 4.34842 4.27293 3.75454 5.08566 3.49447C5.69521 3.29941 6.46246 3.38466 7.99694 3.55516L9.01835 3.66865C9.31212 3.70129 9.45901 3.71761 9.58503 3.74267C10.8949 4.0031 11.8748 5.09798 11.989 6.42855C12 6.55657 12 6.70436 12 6.99994" stroke="currentColor" stroke-width="2" stroke-linecap="round" stroke-linejoin="round"/>
    </g>

    <g id="icon-arrow-left" fill="none" xmlns="http://www.w3.org/2000/svg">
        <path d="M19 12H5M5 12L12 19M5 12L12 5" stroke="currentColor" stroke-width="2" stroke-linecap="round" stroke-linejoin="round"/>
    </g>
    
    <g id="icon-arrow-right" fill="none" xmlns="http://www.w3.org/2000/svg">
        <path d="M5 12H19M19 12L12 5M19 12L12 19" stroke="currentColor" stroke-width="2" stroke-linecap="round" stroke-linejoin="round"/>
    </g>
    
    <g id="icon-error" fill="none" xmlns="http://www.w3.org/2000/svg">
        <path d="M9 9L15 15M15 9L9 15M7.8 21H16.2C17.8802 21 18.7202 21 19.362 20.673C19.9265 20.3854 20.3854 19.9265 20.673 19.362C21 18.7202 21 17.8802 21 16.2V7.8C21 6.11984 21 5.27976 20.673 4.63803C20.3854 4.07354 19.9265 3.6146 19.362 3.32698C18.7202 3 17.8802 3 16.2 3H7.8C6.11984 3 5.27976 3 4.63803 3.32698C4.07354 3.6146 3.6146 4.07354 3.32698 4.63803C3 5.27976 3 6.11984 3 7.8V16.2C3 17.8802 3 18.7202 3.32698 19.362C3.6146 19.9265 4.07354 20.3854 4.63803 20.673C5.27976 21 6.11984 21 7.8 21Z" stroke="currentColor" stroke-width="2" stroke-linecap="round" stroke-linejoin="round"/>
    </g>

    <g id="icon-success" fill="none" xmlns="http://www.w3.org/2000/svg">
        <path d="M7.5 12L10.5 15L16.5 9M7.8 21H16.2C17.8802 21 18.7202 21 19.362 20.673C19.9265 20.3854 20.3854 19.9265 20.673 19.362C21 18.7202 21 17.8802 21 16.2V7.8C21 6.11984 21 5.27976 20.673 4.63803C20.3854 4.07354 19.9265 3.6146 19.362 3.32698C18.7202 3 17.8802 3 16.2 3H7.8C6.11984 3 5.27976 3 4.63803 3.32698C4.07354 3.6146 3.6146 4.07354 3.32698 4.63803C3 5.27976 3 6.11984 3 7.8V16.2C3 17.8802 3 18.7202 3.32698 19.362C3.6146 19.9265 4.07354 20.3854 4.63803 20.673C5.27976 21 6.11984 21 7.8 21Z" stroke="currentColor" stroke-width="2" stroke-linecap="round" stroke-linejoin="round"/>
    </g>

    <g id="icon-shop" fill="none" xmlns="http://www.w3.org/2000/svg">
        <path d="M3.52 1.64L1.96 3.72C1.65102 4.13198 1.49652 4.33797 1.50011 4.51039C1.50323 4.66044 1.57358 4.80115 1.69175 4.89368C1.82754 5 2.08503 5 2.6 5H17.4C17.915 5 18.1725 5 18.3083 4.89368C18.4264 4.80115 18.4968 4.66044 18.4999 4.51039C18.5035 4.33797 18.349 4.13198 18.04 3.72L16.48 1.64M3.52 1.64C3.696 1.40533 3.784 1.288 3.89552 1.20338C3.9943 1.12842 4.10616 1.0725 4.22539 1.03845C4.36 1 4.50667 1 4.8 1H15.2C15.4933 1 15.64 1 15.7746 1.03845C15.8938 1.0725 16.0057 1.12842 16.1045 1.20338C16.216 1.288 16.304 1.40533 16.48 1.64M3.52 1.64L1.64 4.14666C1.40254 4.46328 1.28381 4.62159 1.1995 4.79592C1.12469 4.95062 1.07012 5.11431 1.03715 5.28296C1 5.47301 1 5.6709 1 6.06666L1 17.8C1 18.9201 1 19.4802 1.21799 19.908C1.40973 20.2843 1.71569 20.5903 2.09202 20.782C2.51984 21 3.07989 21 4.2 21L15.8 21C16.9201 21 17.4802 21 17.908 20.782C18.2843 20.5903 18.5903 20.2843 18.782 19.908C19 19.4802 19 18.9201 19 17.8V6.06667C19 5.6709 19 5.47301 18.9628 5.28296C18.9299 5.11431 18.8753 4.95062 18.8005 4.79592C18.7162 4.62159 18.5975 4.46328 18.36 4.14667L16.48 1.64M14 9C14 10.0609 13.5786 11.0783 12.8284 11.8284C12.0783 12.5786 11.0609 13 10 13C8.93913 13 7.92172 12.5786 7.17157 11.8284C6.42143 11.0783 6 10.0609 6 9" stroke="currentColor" stroke-width="2" stroke-linecap="round" stroke-linejoin="round"/>
    </g>

    <g id="icon-cart" fill="none" xmlns="http://www.w3.org/2000/svg">
        <path d="M1 1H2.30616C2.55218 1 2.67519 1 2.77418 1.04524C2.86142 1.08511 2.93535 1.14922 2.98715 1.22995C3.04593 1.32154 3.06333 1.44332 3.09812 1.68686L3.57143 5M3.57143 5L4.62332 12.7314C4.75681 13.7125 4.82355 14.2031 5.0581 14.5723C5.26478 14.8977 5.56108 15.1564 5.91135 15.3174C6.30886 15.5 6.80394 15.5 7.79411 15.5H16.352C17.2945 15.5 17.7658 15.5 18.151 15.3304C18.4905 15.1809 18.7818 14.9398 18.9923 14.6342C19.2309 14.2876 19.3191 13.8247 19.4955 12.8988L20.8191 5.94969C20.8812 5.62381 20.9122 5.46087 20.8672 5.3335C20.8278 5.22177 20.7499 5.12768 20.6475 5.06802C20.5308 5 20.365 5 20.0332 5H3.57143ZM9 20C9 20.5523 8.55228 21 8 21C7.44772 21 7 20.5523 7 20C7 19.4477 7.44772 19 8 19C8.55228 19 9 19.4477 9 20ZM17 20C17 20.5523 16.5523 21 16 21C15.4477 21 15 20.5523 15 20C15 19.4477 15.4477 19 16 19C16.5523 19 17 19.4477 17 20Z" stroke="currentColor" stroke-width="2" stroke-linecap="round" stroke-linejoin="round"/>
    </g>


</svg>
